<?xml version="1.0" standalone="no"?>
<!DOCTYPE svg PUBLIC "-//W3C//DTD SVG 20010904//EN"
 "http://www.w3.org/TR/2001/REC-SVG-20010904/DTD/svg10.dtd">
<svg version="1.0" xmlns="http://www.w3.org/2000/svg"
 width="2048.000000pt" height="2048.000000pt" viewBox="0 0 2048.000000 2048.000000"
 preserveAspectRatio="xMidYMid meet">

<g transform="translate(0.000000,2048.000000) scale(0.100000,-0.100000)"
fill="#000000" stroke="none">
<path d="M12630 11680 c-107 -4 -341 -12 -520 -18 -179 -7 -390 -14 -470 -17
-80 -3 -212 -7 -295 -10 -82 -3 -204 -7 -270 -10 -66 -3 -246 -7 -400 -11
-154 -3 -294 -7 -311 -9 -17 -2 -328 -9 -690 -16 -363 -8 -650 -15 -639 -16
23 -3 669 -26 1380 -50 413 -14 833 -17 2410 -18 2003 0 2000 0 2390 -46 737
-86 1206 -207 1568 -406 97 -53 115 -68 72 -60 -145 29 -710 93 -723 82 -1 -1
29 -49 67 -107 172 -260 403 -450 659 -542 153 -55 368 -95 509 -96 40 0 67
-5 76 -14 44 -45 59 -378 23 -534 -18 -79 -18 -84 -1 -122 10 -23 63 -83 126
-145 89 -87 109 -111 109 -135 0 -16 -3 -31 -7 -33 -5 -3 -190 -6 -413 -8
l-405 -4 -7 90 c-10 111 -48 271 -95 390 -120 307 -334 550 -611 693 -68 35
-211 92 -230 92 -4 0 34 -22 85 -49 330 -176 550 -484 618 -868 28 -156 17
-438 -21 -536 -3 -9 66 -11 298 -9 900 7 852 4 911 60 65 61 87 142 62 228
-22 75 -39 100 -143 206 l-85 86 13 114 c19 171 9 397 -24 523 -34 133 -126
316 -211 422 -333 416 -949 690 -1845 822 -522 76 -664 83 -1795 86 -533 1
-1058 -1 -1165 -5z m4036 -815 c83 -13 203 -38 267 -54 116 -30 289 -92 313
-112 16 -13 132 -182 141 -205 6 -15 -1 -16 -78 -10 -346 30 -546 115 -761
324 -75 72 -88 95 -50 86 9 -2 85 -15 168 -29z"/>
<path d="M2010 11392 c-19 -9 -45 -33 -58 -52 -47 -70 -16 -185 61 -228 28
-15 64 -17 287 -17 295 0 306 3 349 88 29 59 23 121 -17 168 -46 55 -67 59
-339 59 -216 0 -252 -2 -283 -18z"/>
<path d="M3110 11403 c-67 -25 -117 -107 -105 -172 10 -55 41 -97 89 -120 42
-21 51 -21 1038 -21 l997 0 6 -52 c3 -29 5 -102 3 -163 l-3 -110 -570 -5
c-570 -5 -570 -5 -601 -27 -64 -46 -84 -150 -41 -213 12 -18 35 -43 50 -54 28
-21 40 -21 595 -26 l567 -5 3 -162 2 -162 -284 -3 c-318 -3 -312 -2 -364 -79
-20 -28 -23 -44 -20 -92 5 -69 27 -103 88 -134 43 -22 54 -23 312 -23 l268 0
0 -632 0 -631 647 6 c355 4 850 7 1100 7 l453 0 0 265 0 265 -794 0 -794 0 1
1175 2 1175 -1315 -1 c-723 0 -1322 -3 -1330 -6z"/>
<path d="M8370 10830 c-188 -34 -338 -94 -493 -199 -317 -213 -488 -558 -488
-981 -1 -438 201 -794 573 -1011 312 -182 769 -211 1134 -70 331 128 603 434
689 776 163 641 -184 1276 -790 1449 -204 58 -427 71 -625 36z m423 -524 c183
-59 324 -202 393 -401 26 -74 28 -91 28 -230 0 -170 -12 -231 -71 -354 -26
-56 -55 -94 -112 -151 -121 -121 -244 -171 -426 -172 -178 -1 -315 54 -434
172 -124 122 -182 276 -184 485 -1 144 17 225 75 344 72 151 226 275 390 317
68 18 275 11 341 -10z"/>
<path d="M11095 10841 c-162 -19 -341 -68 -455 -126 -158 -79 -326 -221 -423
-357 -66 -92 -143 -259 -174 -375 -35 -135 -45 -422 -18 -559 70 -357 269
-628 590 -804 198 -108 492 -165 724 -140 321 34 543 133 731 324 71 72 170
207 170 230 -1 6 -92 64 -203 128 -111 65 -216 127 -233 138 l-31 20 -37 -59
c-150 -244 -501 -332 -786 -198 -83 39 -212 165 -258 254 -139 266 -92 629
108 832 218 220 594 242 830 49 44 -36 99 -99 145 -165 2 -3 123 67 337 195
145 87 140 71 53 188 -167 224 -380 354 -670 409 -92 18 -308 26 -400 16z"/>
<path d="M3003 10742 c-52 -28 -76 -68 -81 -131 -4 -70 19 -117 74 -149 37
-21 47 -22 239 -20 191 3 201 4 233 26 96 69 84 226 -21 275 -52 25 -397 24
-444 -1z"/>
<path d="M12890 10335 c0 -4 150 -352 226 -524 15 -35 30 -59 32 -52 2 6 -2
18 -8 26 -7 8 -10 22 -6 30 4 11 2 14 -6 9 -8 -5 -9 -1 -4 12 4 10 4 15 0 11
-4 -3 -18 16 -30 44 -27 58 -28 63 -12 53 7 -4 8 -3 4 5 -4 6 -12 9 -17 6 -5
-4 -9 -3 -10 2 -4 44 -12 70 -24 79 -8 6 -23 35 -35 65 -12 29 -33 78 -47 109
-14 30 -27 66 -30 80 -2 13 -9 28 -15 31 -7 4 -1 9 13 12 23 4 22 4 -3 6 -16
0 -28 -1 -28 -4z"/>
<path d="M13614 10109 c13 -27 27 -53 31 -57 8 -8 -10 39 -30 78 -25 49 -26
34 -1 -21z"/>
<path d="M13682 9949 c6 -16 12 -28 14 -26 5 5 -13 57 -20 57 -3 0 0 -14 6
-31z"/>
<path d="M13150 9735 c0 -5 5 -17 10 -25 5 -8 10 -10 10 -5 0 6 -5 17 -10 25
-5 8 -10 11 -10 5z"/>
<path d="M14120 9693 c-24 -52 -101 -238 -125 -300 l-24 -63 35 -76 c19 -41
31 -80 28 -86 -4 -6 -2 -8 4 -4 6 3 14 -4 18 -16 3 -13 38 -93 76 -178 78
-173 126 -287 130 -310 2 -8 -3 -14 -10 -12 -8 1 -11 -2 -7 -7 3 -6 12 -8 19
-5 10 4 12 -2 8 -23 -3 -15 -7 -22 -9 -16 -4 10 -10 10 -24 2 -17 -8 -18 -13
-8 -25 11 -13 9 -14 -16 -8 -20 5 -26 4 -21 -5 5 -8 -7 -11 -38 -11 -30 0 -46
4 -46 13 0 9 -2 9 -8 0 -5 -8 -44 -13 -112 -16 -64 -2 -31 -4 86 -5 l191 -2
90 213 c175 407 305 719 301 721 -1 2 -46 17 -98 35 -111 38 -270 116 -352
172 -32 21 -62 39 -66 39 -5 0 -15 -12 -22 -27z"/>
<path d="M13791 9705 c0 -5 8 -26 19 -45 11 -19 19 -30 19 -25 0 6 -8 26 -19
45 -11 19 -19 31 -19 25z"/>
<path d="M13182 9664 c7 -26 111 -264 115 -261 1 2 -15 47 -36 100 -22 54 -37
97 -33 97 4 0 2 4 -4 8 -6 4 -19 21 -28 37 -9 17 -16 25 -14 19z"/>
<path d="M13840 9595 c0 -5 5 -17 10 -25 5 -8 10 -10 10 -5 0 6 -5 17 -10 25
-5 8 -10 11 -10 5z"/>
<path d="M13300 9385 c0 -5 5 -17 10 -25 5 -8 10 -10 10 -5 0 6 -5 17 -10 25
-5 8 -10 11 -10 5z"/>
<path d="M13340 9298 c0 -4 15 -42 34 -85 19 -43 72 -168 119 -278 147 -345
172 -395 199 -394 21 2 21 2 2 6 -15 3 -30 25 -52 76 -18 40 -32 80 -32 90 0
9 -5 17 -11 17 -6 0 -9 6 -6 14 3 8 1 17 -6 19 -9 3 -9 9 1 26 6 11 12 24 12
28 0 5 -5 0 -11 -10 -6 -9 -14 -15 -18 -12 -9 5 -26 73 -23 88 1 4 -3 7 -8 7
-6 0 -24 28 -40 62 -23 47 -27 64 -18 70 10 6 9 8 -4 8 -9 0 -21 13 -27 30 -5
17 -7 30 -4 30 3 0 1 6 -4 13 -5 6 -8 22 -7 34 1 14 -3 20 -12 16 -12 -5 -19
8 -15 30 0 4 -3 7 -7 7 -5 0 -9 6 -9 13 0 13 -53 107 -53 95z"/>
<path d="M13568 8933 c7 -3 16 -2 19 1 4 3 -2 6 -13 5 -11 0 -14 -3 -6 -6z"/>
<path d="M13583 8858 c-2 -16 0 -16 13 -4 17 18 18 23 1 23 -7 0 -14 -9 -14
-19z"/>
<path d="M13986 8655 c-3 -8 -1 -15 4 -15 6 0 10 7 10 15 0 8 -2 15 -4 15 -2
0 -6 -7 -10 -15z"/>
<path d="M13783 8543 c9 -2 23 -2 30 0 6 3 -1 5 -18 5 -16 0 -22 -2 -12 -5z"/>
</g>
</svg>
